<?xml version="1.0" standalone="no"?>
<!DOCTYPE svg PUBLIC "-//W3C//DTD SVG 20010904//EN"
 "http://www.w3.org/TR/2001/REC-SVG-20010904/DTD/svg10.dtd">
<svg version="1.0" xmlns="http://www.w3.org/2000/svg"
 width="1024.000000pt" height="1024.000000pt" viewBox="0 0 1024.000000 1024.000000"
 preserveAspectRatio="xMidYMid meet">

<g transform="translate(0.000000,1024.000000) scale(0.100000,-0.100000)"
fill="#000000" stroke="none">
<path d="M2059 6621 c-174 -75 -341 -152 -373 -171 -132 -80 -198 -181 -217
-332 -7 -55 -9 -393 -7 -964 4 -866 4 -880 26 -957 41 -149 137 -297 257 -396
77 -65 215 -129 325 -151 89 -19 141 -20 835 -20 802 0 856 3 1010 55 367 123
633 435 722 846 16 76 18 143 18 689 0 592 -1 607 -23 709 -28 127 -79 261
-141 365 -49 83 -163 222 -228 275 l-38 31 -7 -102 c-13 -213 -91 -400 -232
-555 l-48 -53 -633 0 -633 0 -52 54 c-71 74 -114 136 -161 231 -60 124 -82
226 -83 380 0 72 3 147 7 168 4 20 4 37 0 36 -4 -1 -150 -63 -324 -138z m2545
-1271 c-7 -7 -151 -9 -400 -7 l-389 2 393 3 c291 1 392 5 392 14 0 6 3 8 7 5
4 -4 2 -12 -3 -17z m-817 -16 c-3 -3 -12 -4 -19 -1 -8 3 -5 6 6 6 11 1 17 -2
13 -5z m-57 -337 c0 -2 -10 -12 -22 -23 l-23 -19 19 23 c18 21 26 27 26 19z
m-20 -312 c13 -14 21 -25 18 -25 -2 0 -15 11 -28 25 -13 14 -21 25 -18 25 2 0
15 -11 28 -25z m97 -51 c-3 -3 -12 -4 -19 -1 -8 3 -5 6 6 6 11 1 17 -2 13 -5z
m576 -311 c-100 -2 -266 -2 -370 0 -103 1 -21 2 182 2 204 0 288 -1 188 -2z"/>
<path d="M7665 6234 c-196 -39 -349 -183 -411 -390 -13 -43 -18 -92 -18 -179
0 -185 47 -310 158 -420 102 -102 237 -155 396 -155 209 1 374 87 480 252 53
82 80 172 87 288 22 403 -298 682 -692 604z m263 -224 c56 -24 121 -86 152
-146 11 -23 28 -77 37 -119 37 -183 -39 -355 -186 -423 -45 -21 -72 -26 -136
-27 -69 0 -88 4 -138 29 -70 36 -120 89 -156 165 -23 50 -26 68 -26 171 0 130
11 177 58 246 81 122 250 166 395 104z"/>
<path d="M5370 5665 l0 -555 350 0 350 0 0 105 0 105 -235 0 -235 0 0 125 0
125 205 0 205 0 0 100 0 100 -205 0 -205 0 0 123 0 122 230 -3 230 -3 0 105 0
106 -345 0 -345 0 0 -555z"/>
<path d="M6170 6213 c0 -4 29 -89 64 -188 114 -324 255 -718 290 -815 l34 -95
143 -3 144 -2 68 197 c182 527 305 880 312 896 7 16 -3 17 -117 17 l-125 0
-132 -412 c-152 -473 -147 -459 -154 -438 -3 8 -66 202 -139 430 l-134 415
-127 3 c-70 1 -127 -1 -127 -5z"/>
<path d="M5225 4673 c24 -82 66 -227 95 -323 29 -96 59 -199 68 -227 l15 -53
74 0 c50 0 75 4 78 13 29 90 125 434 125 448 0 11 5 19 10 19 6 0 10 -6 10
-12 0 -11 90 -343 119 -438 7 -24 11 -25 81 -25 l73 0 28 90 c77 255 189 634
189 644 0 8 -24 11 -77 9 l-78 -3 -32 -125 c-18 -69 -47 -180 -65 -248 -17
-67 -34 -119 -38 -115 -7 8 -21 56 -95 333 l-42 155 -63 3 c-35 2 -67 -1 -71
-5 -9 -9 -129 -442 -129 -466 0 -33 -19 -26 -30 10 -11 40 -76 283 -105 396
l-18 67 -82 0 -82 0 42 -147z"/>
<path d="M6411 4763 c-13 -32 -74 -193 -136 -358 -62 -165 -116 -308 -120
-318 -7 -16 -1 -18 75 -15 l83 3 27 75 28 75 147 0 148 0 26 -75 26 -75 84 -3
c77 -3 83 -1 77 15 -41 104 -256 675 -263 698 -10 30 -10 30 -95 33 l-85 3
-22 -58z m106 -401 c-55 -1 -101 -1 -103 0 -1 2 20 68 49 146 l51 143 51 -143
51 -143 -99 -3z"/>
<path d="M6977 4814 c-4 -4 -7 -173 -7 -376 l0 -368 215 0 215 0 0 70 0 70
-135 0 -135 0 -2 303 -3 302 -70 3 c-39 1 -74 0 -78 -4z"/>
<path d="M7520 4445 l0 -375 220 0 220 0 0 70 0 70 -145 0 -145 0 0 305 0 305
-75 0 -75 0 0 -375z"/>
<path d="M8070 4445 l0 -375 240 0 240 0 0 70 0 70 -165 0 -165 0 0 85 0 85
145 0 145 0 0 65 0 65 -145 0 -145 0 0 80 0 80 160 0 160 0 0 75 0 75 -235 0
-235 0 0 -375z"/>
<path d="M8629 4816 c-2 -2 -3 -36 -1 -75 l4 -71 109 0 109 0 0 -300 0 -300
75 0 75 0 0 300 0 300 110 0 110 0 0 75 0 75 -293 0 c-162 0 -296 -2 -298 -4z"/>
</g>
</svg>
